<?xml version="1.0" encoding="UTF-8" standalone="no"?>
<svg
   xmlns:dc="http://purl.org/dc/elements/1.1/"
   xmlns:cc="http://creativecommons.org/ns#"
   xmlns:rdf="http://www.w3.org/1999/02/22-rdf-syntax-ns#"
   xmlns:svg="http://www.w3.org/2000/svg"
   xmlns="http://www.w3.org/2000/svg"
   xmlns:sodipodi="http://sodipodi.sourceforge.net/DTD/sodipodi-0.dtd"
   xmlns:inkscape="http://www.inkscape.org/namespaces/inkscape"
   version="1.1"
   viewBox="0 0 352 88"
   id="svg2"
   inkscape:version="0.91 r"
   sodipodi:docname="default-skin.s.svg"
   inkscape:export-filename="/home/jbo/Localhost/soapoperator/cv2016/images/photoswipe/default-skin.png"
   inkscape:export-xdpi="90"
   inkscape:export-ydpi="90">
  <defs
     id="defs40" />
  <sodipodi:namedview
     pagecolor="#ffffff"
     bordercolor="#666666"
     borderopacity="1"
     objecttolerance="10"
     gridtolerance="10"
     guidetolerance="10"
     inkscape:pageopacity="0"
     inkscape:pageshadow="2"
     inkscape:window-width="1871"
     inkscape:window-height="1056"
     id="namedview38"
     showgrid="true"
     inkscape:snap-bbox="true"
     inkscape:bbox-paths="true"
     inkscape:bbox-nodes="true"
     inkscape:zoom="1.7840909"
     inkscape:cx="139.45113"
     inkscape:cy="27.349223"
     inkscape:window-x="49"
     inkscape:window-y="24"
     inkscape:window-maximized="1"
     inkscape:current-layer="svg2">
    <inkscape:grid
       type="xygrid"
       id="grid4170"
       empspacing="44" />
  </sodipodi:namedview>
  <title
     id="title4">default-skin alt</title>
  <path
     style="fill:#ffffff"
     d="m 11.713436,14 0,5.714285 2.285885,0 0,-3.429425 3.426861,0 0,-2.28486 -5.712746,0 z m 14.858852,0 0,2.28486 3.426862,0 0,3.429425 2.285714,0 0,-5.714285 -5.712576,0 z m -14.858852,10.285715 0,5.714285 5.712746,0 0,-2.28486 -3.426861,0 0,-3.429425 -2.285885,0 z m 18.287424,0 0,3.429425 -3.428572,0 0,2.28486 5.712576,0 0.0017,0 0,-5.714285 -2.285714,0 z"
     id="path6"
     inkscape:connector-curvature="0" />
  <path
     style="fill:#ffffff"
     d="m 59.142003,14 0,3.426862 -3.427718,0 0,2.287423 5.712577,0 0,-5.714285 -2.284859,0 z m 11.431135,0 0,5.714285 5.712577,0 0,-2.287423 -3.427718,0 0,-3.426862 -2.284859,0 z m 0,10.285715 0,5.714285 2.284859,0 0,-3.426862 3.427718,0 0,-2.287423 -5.712577,0 z m -14.858853,0.0017 0,2.285713 3.427718,0 0,3.426863 2.284859,0 0,-5.712576 -5.712577,0 z"
     id="path8"
     inkscape:connector-curvature="0" />
  <path
     style="fill:#ffffff"
     d="m335.36 28.655-2.036 2.037-8.692-8.692 8.692-8.692 2.036 2.037-6.655 6.655z"
     id="path10" />
  <path
     style="fill:#ffffff"
     d="m280.64 28.655 6.655-6.655-6.655-6.655 2.036-2.037 8.692 8.692-8.692 8.692z"
     id="path12" />
  <path
     style="fill:#fffd76"
     d="m 11.713436,58 0,5.714285 2.285885,0 0,-3.429425 3.426861,0 0,-2.28486 -5.712746,0 z m 14.858852,0 0,2.28486 3.426862,0 0,3.429425 2.285714,0 0,-5.714285 -5.712576,0 z m -14.858852,10.285715 0,5.714285 5.712746,0 0,-2.28486 -3.426861,0 0,-3.429425 -2.285885,0 z m 18.287424,0 0,3.429425 -3.428572,0 0,2.28486 5.712576,0 0.0017,0 0,-5.714285 -2.285714,0 z"
     id="path14"
     inkscape:connector-curvature="0" />
  <path
     style="fill:#fffd76"
     d="m 59.142003,58 0,3.426862 -3.427718,0 0,2.287423 5.712577,0 0,-5.714285 -2.284859,0 z m 11.431135,0 0,5.714285 5.712577,0 0,-2.287423 -3.427718,0 0,-3.426862 -2.284859,0 z m 0,10.285715 0,5.714285 2.284859,0 0,-3.426862 3.427718,0 0,-2.287423 -5.712577,0 z m -14.858853,0.0017 0,2.285713 3.427718,0 0,3.426863 2.284859,0 0,-5.712576 -5.712577,0 z"
     id="path16"
     inkscape:connector-curvature="0" />
  <path
     style="fill:#fffd76"
     d="m335.36 72.655-2.036 2.037-8.692-8.692 8.692-8.692 2.036 2.037-6.655 6.655z"
     id="path18" />
  <path
     style="fill:#fffd76"
     d="m280.64 72.655 6.655-6.655-6.655-6.655 2.036-2.037 8.692 8.692-8.692 8.692z"
     id="path20" />
  <path
     style="fill:#ffffff"
     d="m198 8c-7.7323 0-14 6.2677-14 14s6.2677 14 14 14 14-6.2677 14-14-6.2677-14-14-14zm0 2.625c6.2828 0 11.375 5.0922 11.375 11.375s-5.0922 11.377-11.375 11.377c-6.2817 0-11.375-5.0943-11.375-11.377 0-6.2828 5.0922-11.375 11.375-11.375zm-4.375 4.375-2.6271 2.6271 4.3771 4.375-4.3771 4.375 2.6271 2.625 4.375-4.375 4.375 4.375 2.6271-2.625-4.3771-4.375 4.3771-4.375l-2.63-2.627-4.38 4.377-4.38-4.377z"
     id="path22" />
  <path
     style="fill:#ffffff"
     d="m 117.50412,27.615649 -3.79009,-3.223278 c -0.39199,-0.352608 -0.81109,-0.514446 -1.14949,-0.499065 0.89475,-1.047959 1.43503,-2.407325 1.43503,-3.893428 0,-3.313746 -2.68606,-5.999878 -5.99988,-5.999878 -3.31374,0 -5.99988,2.686065 -5.99988,5.999878 0,3.313747 2.68607,5.999879 5.99988,5.999879 1.4861,0 2.84547,-0.540293 3.89343,-1.435035 -0.0154,0.338455 0.14646,0.757552 0.49906,1.149494 l 3.22328,3.790092 c 0.55199,0.612908 1.4535,0.664603 2.00365,0.115076 0.55014,-0.549527 0.49845,-1.451635 -0.11507,-2.003648 z m -9.50356,-3.615287 c -2.20919,0 -3.9999,-1.79071 -3.9999,-3.999897 0,-2.209187 1.79071,-3.999896 3.9999,-3.999896 2.20919,0 3.9999,1.790709 3.9999,3.999896 0,2.209187 -1.79071,3.999897 -3.9999,3.999897 z m 0.99996,-6.999503 -1.99992,0 0,1.999982 -1.99991,0 0,1.999982 1.99991,0 0,1.999981 1.99992,0 0,-1.999981 1.99998,0 0,-1.999982 -1.99998,0 z"
     id="path24"
     inkscape:connector-curvature="0" />
  <path
     style="fill:#ffffff"
     d="m 247.49964,24.999775 c -0.70577,0 -1.34269,0.292903 -1.79681,0.76304 l -6.73376,-3.367148 c 0.0203,-0.129223 0.0314,-0.260905 0.0314,-0.395667 0,-0.134762 -0.0111,-0.267058 -0.0314,-0.395667 l 6.73376,-3.367148 c 0.45473,0.470117 1.09163,0.76304 1.79681,0.76304 1.38081,0 2.50011,-1.119293 2.50011,-2.500112 0,-1.380819 -1.1193,-2.500113 -2.50011,-2.500113 -1.38082,0 -2.50011,1.119294 -2.50011,2.500113 0,0.134762 0.0111,0.267057 0.0314,0.395667 l -6.73376,3.367147 c -0.45474,-0.470116 -1.09163,-0.76304 -1.7968,-0.76304 -1.38082,0 -2.50012,1.119294 -2.50012,2.500113 0,1.380819 1.1193,2.500113 2.50012,2.500113 0.70577,0 1.34268,-0.292904 1.7968,-0.76304 l 6.73376,3.367147 c -0.0203,0.12861 -0.0314,0.260905 -0.0314,0.395667 0,1.380819 1.11929,2.500113 2.50011,2.500113 1.38081,0 2.50011,-1.119294 2.50011,-2.500113 0,-1.380819 -1.1193,-2.500112 -2.50011,-2.500112 z"
     id="path26"
     inkscape:connector-curvature="0" />
  <path
     style="fill:#ffffff"
     d="m 161.50412,27.615649 -3.79009,-3.223278 c -0.39199,-0.352608 -0.81109,-0.514446 -1.14949,-0.499065 0.89475,-1.047959 1.43503,-2.407325 1.43503,-3.893428 0,-3.313746 -2.68606,-5.999878 -5.99988,-5.999878 -3.31374,0 -5.99988,2.686065 -5.99988,5.999878 0,3.313747 2.68607,5.999879 5.99988,5.999879 1.4861,0 2.84547,-0.540293 3.89343,-1.435035 -0.0154,0.338455 0.14646,0.757552 0.49906,1.149494 l 3.22328,3.790092 c 0.55199,0.612908 1.4535,0.664603 2.00365,0.115076 0.55014,-0.549527 0.49845,-1.451635 -0.11507,-2.003648 z m -9.50356,-3.615287 c -2.20919,0 -3.9999,-1.79071 -3.9999,-3.999897 0,-2.209187 1.79071,-3.999896 3.9999,-3.999896 2.20919,0 3.9999,1.790709 3.9999,3.999896 0,2.209187 -1.79071,3.999897 -3.9999,3.999897 z m -2.99994,-4.999854 0,1.999981 5.99988,0 0,-1.999981 z"
     id="path28"
     inkscape:connector-curvature="0" />
  <path
     d="m198 52c-7.7323 0-14 6.2677-14 14s6.2677 14 14 14 14-6.2677 14-14-6.2677-14-14-14zm0 2.625c6.2828 0 11.375 5.0922 11.375 11.375s-5.0922 11.377-11.375 11.377c-6.2817 0-11.375-5.0943-11.375-11.377 0-6.2828 5.0922-11.375 11.375-11.375zm-4.375 4.375-2.6271 2.6271 4.3771 4.375-4.3771 4.375 2.6271 2.625 4.375-4.375 4.375 4.375 2.6271-2.625-4.3771-4.375 4.3771-4.375l-2.63-2.627-4.38 4.377-4.38-4.377z"
     style="fill:#fffd76"
     id="path30" />
  <path
     style="fill:#fffd76;fill-opacity:1"
     d="m 117.50412,71.615649 -3.79009,-3.223278 c -0.39199,-0.352608 -0.81109,-0.514446 -1.14949,-0.499065 0.89475,-1.047959 1.43503,-2.407325 1.43503,-3.893428 0,-3.313746 -2.68606,-5.999878 -5.99988,-5.999878 -3.31374,0 -5.99988,2.686065 -5.99988,5.999878 0,3.313747 2.68607,5.999879 5.99988,5.999879 1.4861,0 2.84547,-0.540293 3.89343,-1.435035 -0.0154,0.338455 0.14646,0.757552 0.49906,1.149494 l 3.22328,3.790092 c 0.55199,0.612908 1.4535,0.664603 2.00365,0.115076 0.55014,-0.549527 0.49845,-1.451635 -0.11507,-2.003648 z m -9.50356,-3.615287 c -2.20919,0 -3.9999,-1.79071 -3.9999,-3.999897 0,-2.209187 1.79071,-3.999896 3.9999,-3.999896 2.20919,0 3.9999,1.790709 3.9999,3.999896 0,2.209187 -1.79071,3.999897 -3.9999,3.999897 z m 0.99996,-6.999503 -1.99992,0 0,1.999982 -1.99991,0 0,1.999982 1.99991,0 0,1.999981 1.99992,0 0,-1.999981 1.99998,0 0,-1.999982 -1.99998,0 z"
     id="path32"
     inkscape:connector-curvature="0" />
  <path
     style="fill:#fffd76"
     d="m 247.49963,68.999775 c -0.70578,0 -1.34268,0.292903 -1.7968,0.76304 l -6.73376,-3.367149 c 0.0204,-0.129222 0.0314,-0.260904 0.0314,-0.395666 0,-0.134762 -0.0111,-0.267057 -0.0314,-0.395666 l 6.73376,-3.367149 c 0.45473,0.470117 1.09164,0.76304 1.7968,0.76304 1.38082,0 2.50013,-1.119294 2.50013,-2.500112 C 249.99975,59.119294 248.88045,58 247.49963,58 c -1.38082,0 -2.50011,1.119294 -2.50011,2.500113 0,0.134762 0.0111,0.267057 0.0314,0.395666 l -6.73376,3.367148 c -0.45473,-0.470116 -1.09163,-0.76304 -1.79679,-0.76304 -1.38082,0 -2.50013,1.119294 -2.50013,2.500113 0,1.380819 1.11931,2.500113 2.50013,2.500113 0.70576,0 1.34268,-0.292903 1.79679,-0.76304 l 6.73376,3.367148 c -0.0203,0.128609 -0.0314,0.260904 -0.0314,0.395666 0,1.380819 1.11929,2.500113 2.50011,2.500113 1.38082,0 2.50013,-1.119294 2.50013,-2.500113 0,-1.380818 -1.11931,-2.500112 -2.50013,-2.500112 z"
     id="path34"
     inkscape:connector-curvature="0" />
  <path
     style="fill:#fffd76;fill-opacity:1"
     d="m 161.50412,71.615649 -3.79009,-3.223278 c -0.39199,-0.352608 -0.81109,-0.514446 -1.14949,-0.499065 0.89475,-1.047959 1.43503,-2.407325 1.43503,-3.893428 0,-3.313746 -2.68606,-5.999878 -5.99988,-5.999878 -3.31374,0 -5.99988,2.686065 -5.99988,5.999878 0,3.313747 2.68607,5.999879 5.99988,5.999879 1.4861,0 2.84547,-0.540293 3.89343,-1.435035 -0.0154,0.338455 0.14646,0.757552 0.49906,1.149494 l 3.22328,3.790092 c 0.55199,0.612908 1.4535,0.664603 2.00365,0.115076 0.55014,-0.549527 0.49845,-1.451635 -0.11507,-2.003648 z m -9.50356,-3.615287 c -2.20919,0 -3.9999,-1.79071 -3.9999,-3.999897 0,-2.209187 1.79071,-3.999896 3.9999,-3.999896 2.20919,0 3.9999,1.790709 3.9999,3.999896 0,2.209187 -1.79071,3.999897 -3.9999,3.999897 z m -2.99994,-4.999854 0,1.999981 5.99988,0 0,-1.999981 z"
     id="path36"
     inkscape:connector-curvature="0" />
  <metadata
     id="metadata4150">
    <rdf:RDF>
      <cc:Work
         rdf:about="">
        <dc:title>default-skin alt</dc:title>
      </cc:Work>
    </rdf:RDF>
  </metadata>
</svg>
