<?xml version="1.0" encoding="utf-8"?>
<!-- Generated by IcoMoon.io -->
<!DOCTYPE svg PUBLIC "-//W3C//DTD SVG 1.1//EN" "http://www.w3.org/Graphics/SVG/1.1/DTD/svg11.dtd">
<svg version="1.1" xmlns="http://www.w3.org/2000/svg" xmlns:xlink="http://www.w3.org/1999/xlink" width="26" height="26" viewBox="0 0 26 26">
<path fill="#fffd76" d="M26 10.301v11.52q0 0.958-0.682 1.639t-1.639 0.682h-21.357q-0.958 0-1.639-0.682t-0.682-1.639v-11.52q0.638 0.711 1.465 1.262 5.252 3.569 7.211 5.006 0.827 0.609 1.342 0.95t1.371 0.696 1.596 0.355h0.029q0.74 0 1.596-0.355t1.371-0.696 1.342-0.95q2.467-1.785 7.225-5.006 0.827-0.566 1.451-1.262zM26 6.036q0 1.146-0.711 2.191t-1.77 1.785q-5.455 3.787-6.79 4.715-0.145 0.102-0.617 0.443t-0.783 0.551-0.754 0.472-0.834 0.392-0.725 0.131h-0.029q-0.334 0-0.725-0.131t-0.834-0.392-0.754-0.472-0.783-0.551-0.617-0.443q-1.32-0.929-3.801-2.648t-2.974-2.068q-0.9-0.609-1.698-1.676t-0.798-1.98q0-1.132 0.602-1.886t1.719-0.754h21.357q0.943 0 1.632 0.682t0.689 1.639z"></path>
</svg>
