<?xml version="1.0" encoding="utf-8"?>
<!-- Generated by IcoMoon.io -->
<!DOCTYPE svg PUBLIC "-//W3C//DTD SVG 1.1//EN" "http://www.w3.org/Graphics/SVG/1.1/DTD/svg11.dtd">
<svg version="1.1" xmlns="http://www.w3.org/2000/svg" xmlns:xlink="http://www.w3.org/1999/xlink" width="22" height="26" viewBox="0 0 22 26">
<path fill="#fffd76" d="M3.439 20.516h3.352v-10.069h-3.352v10.069zM7.008 7.342q-0.014-0.754-0.522-1.248t-1.349-0.493-1.371 0.493-0.53 1.248q0 0.74 0.515 1.241t1.342 0.501h0.014q0.856 0 1.378-0.501t0.522-1.241zM15.496 20.516h3.352v-5.775q0-2.234-1.059-3.381t-2.8-1.146q-1.973 0-3.032 1.698h0.029v-1.465h-3.352q0.044 0.958 0 10.069h3.352v-5.629q0-0.551 0.102-0.813 0.218-0.508 0.653-0.863t1.074-0.355q1.683 0 1.683 2.278v5.383zM22.286 6.036v13.929q0 1.727-1.226 2.953t-2.953 1.226h-13.929q-1.727 0-2.953-1.226t-1.226-2.953v-13.929q0-1.727 1.226-2.953t2.953-1.226h13.929q1.727 0 2.953 1.226t1.226 2.953z"></path>
</svg>
