<?xml version="1.0" encoding="utf-8"?>
<!-- Generated by IcoMoon.io -->
<!DOCTYPE svg PUBLIC "-//W3C//DTD SVG 1.1//EN" "http://www.w3.org/Graphics/SVG/1.1/DTD/svg11.dtd">
<svg version="1.1" xmlns="http://www.w3.org/2000/svg" xmlns:xlink="http://www.w3.org/1999/xlink" width="676" height="52" viewBox="0 0 676 52">
<svg id="icon-linkedin" width="22" height="26" viewBox="0 0 22 26" x="0" y="0">
<path fill="#fffd76" d="M3.439 20.516h3.352v-10.069h-3.352v10.069zM7.008 7.342q-0.014-0.754-0.522-1.248t-1.349-0.493-1.371 0.493-0.53 1.248q0 0.74 0.515 1.241t1.342 0.501h0.014q0.856 0 1.378-0.501t0.522-1.241zM15.496 20.516h3.352v-5.775q0-2.234-1.059-3.381t-2.8-1.146q-1.973 0-3.032 1.698h0.029v-1.465h-3.352q0.044 0.958 0 10.069h3.352v-5.629q0-0.551 0.102-0.813 0.218-0.508 0.653-0.863t1.074-0.355q1.683 0 1.683 2.278v5.383zM22.286 6.036v13.929q0 1.727-1.226 2.953t-2.953 1.226h-13.929q-1.727 0-2.953-1.226t-1.226-2.953v-13.929q0-1.727 1.226-2.953t2.953-1.226h13.929q1.727 0 2.953 1.226t1.226 2.953z"></path>
</svg>
<svg id="icon-twitter" width="22" height="26" viewBox="0 0 22 26" x="26" y="0">
<path fill="#fffd76" d="M18.571 8.85q-0.813 0.363-1.756 0.493 0.987-0.58 1.349-1.698-0.943 0.551-1.944 0.74-0.885-0.958-2.22-0.958-1.262 0-2.155 0.892t-0.892 2.155q0 0.421 0.073 0.696-1.872-0.102-3.511-0.943t-2.786-2.249q-0.421 0.725-0.421 1.538 0 1.654 1.32 2.539-0.682-0.014-1.451-0.377v0.029q0 1.088 0.725 1.937t1.785 1.052q-0.421 0.116-0.74 0.116-0.189 0-0.566-0.058 0.305 0.914 1.081 1.509t1.763 0.609q-1.683 1.306-3.787 1.306-0.377 0-0.725-0.044 2.147 1.364 4.672 1.364 1.625 0 3.047-0.515t2.438-1.378 1.748-1.988 1.088-2.35 0.355-2.445q0-0.261-0.014-0.392 0.914-0.653 1.523-1.581zM22.286 6.036v13.929q0 1.727-1.226 2.953t-2.953 1.226h-13.929q-1.727 0-2.953-1.226t-1.226-2.953v-13.929q0-1.727 1.226-2.953t2.953-1.226h13.929q1.727 0 2.953 1.226t1.226 2.953z"></path>
</svg>
<svg id="icon-email" width="26" height="26" viewBox="0 0 26 26" x="52" y="0">
<path fill="#fffd76" d="M26 10.301v11.52q0 0.958-0.682 1.639t-1.639 0.682h-21.357q-0.958 0-1.639-0.682t-0.682-1.639v-11.52q0.638 0.711 1.465 1.262 5.252 3.569 7.211 5.006 0.827 0.609 1.342 0.95t1.371 0.696 1.596 0.355h0.029q0.74 0 1.596-0.355t1.371-0.696 1.342-0.95q2.467-1.785 7.225-5.006 0.827-0.566 1.451-1.262zM26 6.036q0 1.146-0.711 2.191t-1.77 1.785q-5.455 3.787-6.79 4.715-0.145 0.102-0.617 0.443t-0.783 0.551-0.754 0.472-0.834 0.392-0.725 0.131h-0.029q-0.334 0-0.725-0.131t-0.834-0.392-0.754-0.472-0.783-0.551-0.617-0.443q-1.32-0.929-3.801-2.648t-2.974-2.068q-0.9-0.609-1.698-1.676t-0.798-1.98q0-1.132 0.602-1.886t1.719-0.754h21.357q0.943 0 1.632 0.682t0.689 1.639z"></path>
</svg>
<svg id="icon-download" width="26" height="26" viewBox="0 0 26 26" x="0" y="26">
<path fill="#fffd76" d="M18.688 11.375l-6.5 6.5-6.5-6.5h4.063v-9.75h4.875v9.75zM12.188 17.875h-12.188v6.5h24.375v-6.5h-12.188zM22.75 21.125h-3.25v-1.625h3.25v1.625z"></path>
</svg>
</svg>
