<?xml version="1.0" encoding="utf-8"?>
<!-- Generated by IcoMoon.io -->
<!DOCTYPE svg PUBLIC "-//W3C//DTD SVG 1.1//EN" "http://www.w3.org/Graphics/SVG/1.1/DTD/svg11.dtd">
<svg version="1.1" xmlns="http://www.w3.org/2000/svg" xmlns:xlink="http://www.w3.org/1999/xlink" width="22" height="26" viewBox="0 0 22 26">
<path fill="#fffd76" d="M18.571 8.85q-0.813 0.363-1.756 0.493 0.987-0.58 1.349-1.698-0.943 0.551-1.944 0.74-0.885-0.958-2.22-0.958-1.262 0-2.155 0.892t-0.892 2.155q0 0.421 0.073 0.696-1.872-0.102-3.511-0.943t-2.786-2.249q-0.421 0.725-0.421 1.538 0 1.654 1.32 2.539-0.682-0.014-1.451-0.377v0.029q0 1.088 0.725 1.937t1.785 1.052q-0.421 0.116-0.74 0.116-0.189 0-0.566-0.058 0.305 0.914 1.081 1.509t1.763 0.609q-1.683 1.306-3.787 1.306-0.377 0-0.725-0.044 2.147 1.364 4.672 1.364 1.625 0 3.047-0.515t2.438-1.378 1.748-1.988 1.088-2.35 0.355-2.445q0-0.261-0.014-0.392 0.914-0.653 1.523-1.581zM22.286 6.036v13.929q0 1.727-1.226 2.953t-2.953 1.226h-13.929q-1.727 0-2.953-1.226t-1.226-2.953v-13.929q0-1.727 1.226-2.953t2.953-1.226h13.929q1.727 0 2.953 1.226t1.226 2.953z"></path>
</svg>
